<?xml version="1.0" encoding="utf-8"?>
<svg version="1.1" id="Слой_1" xmlns="http://www.w3.org/2000/svg" xmlns:xlink="http://www.w3.org/1999/xlink" x="0px" y="0px"
	 viewBox="0 0 64 64" style="enable-background:new 0 0 64 64;" xml:space="preserve" fill="#ffffff">
<g>
	<path class="st0" d="M54.63,54.63L54.63,54.63c-3.11,3.11-8.2,3.11-11.31,0L9.37,20.69c-3.11-3.11-3.11-8.2,0-11.31l0,0
		c3.11-3.11,8.2-3.11,11.31,0l33.94,33.94C57.74,46.42,57.74,51.52,54.63,54.63z"/>
</g>
<g>
	<path class="st0" d="M9.37,54.63L9.37,54.63c-3.11-3.11-3.11-8.2,0-11.31L43.31,9.37c3.11-3.11,8.2-3.11,11.31,0l0,0
		c3.11,3.11,3.11,8.2,0,11.31L20.69,54.63C17.58,57.74,12.48,57.74,9.37,54.63z"/>
</g>
</svg>
