<?xml version="1.0" encoding="utf-8"?>
<svg version="1.1" id="refresh" xmlns="http://www.w3.org/2000/svg" xmlns:xlink="http://www.w3.org/1999/xlink" x="0px" y="0px"
	 viewBox="0 0 192 192" style="enable-background:new 0 0 192 192;" xml:space="preserve" fill="#ffffff">
<path d="M176.09,108.16c-5.96,39.59-40.57,69.79-82.04,68.82c-42.97-1.01-78.02-36.06-79.03-79.03C13.95,52.32,50.61,15,96,15v21
	c-34.07,0-61.52,28.42-59.93,62.84c1.42,30.73,26.36,55.68,57.1,57.1c31.33,1.44,57.69-21.17,62.17-50.94c0.78-5.16,5.17-9,10.39-9
	h0C172.18,96,177.06,101.77,176.09,108.16z"/>
<path d="M131.93,31.46l-18.08,9.03l-7.19,3.6c-4.65,2.33-10.09-0.76-10.62-5.78c-0.02-0.26-0.04-0.53-0.04-0.8V12.25
	c0-5.47,5.76-9.03,10.66-6.58l25.28,12.63C137.36,21.01,137.36,28.75,131.93,31.46z"/>
</svg>
